<svg xmlns="http://www.w3.org/2000/svg" style="isolation:isolate" width="18" height="18"><defs><clipPath id="a"><path d="M0 0h18v18H0z"/></clipPath></defs><g clip-path="url(#a)"><path fill="none" d="M0 0h18v18H0z"/><path d="M3.24 2.16h11.52v13.68H3.24V2.16z" fill="#FFF"/><linearGradient id="b" x1="0%" y1="50%" x2="70.71%" y2="120.71%"><stop offset="0%" stop-color="#cbcbcb"/><stop offset="100%" stop-color="#b5b5b5"/></linearGradient><path d="M14.58 2.52v13H3.42v-13h11.16zm.72-.72H2.7v14.4h12.6V1.8z" fill="url(#b)"/><path fill="#4B546C" d="M5 4.29h3v2H5zM9 4.29h4v.75H9zM9 5.64h4v.75H9zM5 7h8v.75H5zM5 10h3v2H5zM9 10h4v.75H9zM9 11.36h4v.75H9zM5 12.71h8v.75H5z"/><linearGradient id="c" x1="0%" y1="50%" x2="70.71%" y2="120.71%"><stop offset="28.04%" stop-color="#edad3b"/><stop offset="67.08%" stop-color="#dba049"/></linearGradient><path d="M17.81 1.8s.11-.33-.94-1.1L15.36 0c-.56 0-.8 0-1.1.34L7.09 10.2a.47.47 0 0 0-.07.15H7a44.8 44.8 0 0 0-.57 4.59c1.4-.58 2.77-1.22 4.1-1.94l.11-.05a.53.53 0 0 0 .12-.12l7-9.68c.24-.41.26-.92.05-1.35z" fill="url(#c)"/><path d="M8.48 13.73s-.41-.94-1.15-.77l-.4.54.59-3.21c.45.03.9.12 1.31.29.44.16.82.44 1.1.81.29.42.52.87.7 1.35l-2.15.99z" fill="#FFF"/><linearGradient id="d" x1="14.74%" y1="7.74%" x2="85.28%" y2="124.39%"><stop offset="0%" stop-color="#999"/><stop offset="100%" stop-color="#666"/></linearGradient><path d="M12.4 13.21v-1.48c0-.38.33-.7.7-.7h1.84c.38 0 .7.32.7.7v1.48h1.09v-1.48c0-.98-.8-1.78-1.79-1.78h-1.83c-.98 0-1.78.8-1.78 1.78v1.48h1.07z" fill="url(#d)"/><linearGradient id="e" x1="8.26%" y1="-6.94%" x2="91.74%" y2="106.97%"><stop offset="0%" stop-color="#ffad00"/><stop offset="100%" stop-color="#d68900"/></linearGradient><path d="M17.36 17.57c0 .2-.15.36-.35.36h-5.96a.36.36 0 0 1-.36-.36v-4.18c0-.2.16-.36.36-.36H17c.2 0 .36.17.36.37v4.17z" fill="url(#e)"/></g></svg>