<svg xmlns="http://www.w3.org/2000/svg" style="isolation:isolate" width="18" height="18"><defs><clipPath id="a"><path d="M0 0h18v18H0z"/></clipPath></defs><g clip-path="url(#a)"><path fill="none" d="M0 0h18v18H0z"/><path d="M14.76 5.58v10.26H3.24V2.16h8.2l3.32 3.42z" fill="#F9FAFA"/><path d="M11.23 2.34l.29 3.6 3.24-.36-3.53-3.24z" fill="#FFF"/><linearGradient id="b" x1="0%" y1="50%" x2="70.71%" y2="120.71%"><stop offset="0%" stop-color="#cbcbcb"/><stop offset="100%" stop-color="#b5b5b5"/></linearGradient><path d="M11.61 1.8H2.7v14.4h12.6V5.5l-3.69-3.7zm2.69 3.7h-2.67l-.01-2.68L14.3 5.5zm.28 9.98H3.42V2.52h7.38v3.85h3.78v9.11z" fill="url(#b)"/><linearGradient id="c" x1="0%" y1="50%" x2="70.71%" y2="120.71%"><stop offset="0%" stop-color="#cbcbcb"/><stop offset="100%" stop-color="#b5b5b5"/></linearGradient><path fill="url(#c)" d="M5 4h4v3H5z"/><linearGradient id="d" x1="0%" y1="50%" x2="70.71%" y2="120.71%"><stop offset="0%" stop-color="#cbcbcb"/><stop offset="100%" stop-color="#b5b5b5"/></linearGradient><path fill="url(#d)" d="M5 9h8v.75H5z"/><linearGradient id="e" x1="0%" y1="50%" x2="70.71%" y2="120.71%"><stop offset="0%" stop-color="#cbcbcb"/><stop offset="100%" stop-color="#b5b5b5"/></linearGradient><path fill="url(#e)" d="M4.99 11.06h8v.75h-8z"/><linearGradient id="f" x1="0%" y1="50%" x2="70.71%" y2="120.71%"><stop offset="0%" stop-color="#cbcbcb"/><stop offset="100%" stop-color="#b5b5b5"/></linearGradient><path fill="url(#f)" d="M5 13h8v.75H5z"/></g></svg>