<svg xmlns="http://www.w3.org/2000/svg" style="isolation:isolate" width="18" height="18"><defs><clipPath id="a"><path d="M0 0h18v18H0z"/></clipPath></defs><g clip-path="url(#a)"><path fill="none" d="M0 0h18v18H0z"/><path d="M14.76 5.58v10.26H3.24V2.16h8.2l3.32 3.42z" fill="#F9FAFA"/><path d="M11.23 2.34l.29 3.6 3.24-.36-3.53-3.24z" fill="#FFF"/><linearGradient id="b" x1="0%" y1="50%" x2="70.71%" y2="120.71%"><stop offset="0%" stop-color="#cbcbcb"/><stop offset="100%" stop-color="#b5b5b5"/></linearGradient><path d="M11.61 1.8H2.7v14.4h12.6V5.5l-3.69-3.7zm2.69 3.7h-2.67l-.01-2.68L14.3 5.5zm.28 9.98H3.42V2.52h7.38v3.85h3.78v9.11z" fill="url(#b)"/><linearGradient id="c" x1="0%" y1="50%" x2="70.71%" y2="120.71%"><stop offset="0%" stop-color="#cbcbcb"/><stop offset="100%" stop-color="#b5b5b5"/></linearGradient><path fill="url(#c)" d="M5 4h4v3H5z"/><linearGradient id="d" x1="0%" y1="50%" x2="70.71%" y2="120.71%"><stop offset="0%" stop-color="#cbcbcb"/><stop offset="100%" stop-color="#b5b5b5"/></linearGradient><path fill="url(#d)" d="M5 9h8v.75H5z"/><linearGradient id="e" x1="0%" y1="50%" x2="70.71%" y2="120.71%"><stop offset="0%" stop-color="#cbcbcb"/><stop offset="100%" stop-color="#b5b5b5"/></linearGradient><path fill="url(#e)" d="M4.99 11.06h8v.75h-8z"/><linearGradient id="f" x1="0%" y1="50%" x2="70.71%" y2="120.71%"><stop offset="0%" stop-color="#cbcbcb"/><stop offset="100%" stop-color="#b5b5b5"/></linearGradient><path fill="url(#f)" d="M5 13h8v.75H5z"/><linearGradient id="g" x1="20.32%" y1="17.1%" x2="79.71%" y2="82.9%"><stop offset="0%" stop-color="#636363"/><stop offset="100%" stop-color="#2e2e2e"/></linearGradient><path d="M7.1 11.6l.4-.6a.51.51 0 0 0-.12-.7l-.47-.33a.5.5 0 0 0-.7.13l-.73 1.03a6.9 6.9 0 0 0-.98-.07c-2.48 0-4.5 1.29-4.5 2.88 0 .97.76 1.83 1.9 2.35l-.4.59a.5.5 0 0 0 .12.7l.47.33a.5.5 0 0 0 .29.09.5.5 0 0 0 .42-.22l.72-1.03c.31.04.64.07.98.07 2.49 0 4.5-1.29 4.5-2.88 0-.97-.76-1.82-1.9-2.35zM.96 13.93c0-.7.86-1.46 2.21-1.77a2.24 2.24 0 0 0-.54 3.06l-.18.26c-.93-.37-1.5-.98-1.5-1.55zm4.98 1.75a2.23 2.23 0 0 0 .4-3l.2-.3c.94.37 1.5.98 1.5 1.55 0 .68-.81 1.42-2.1 1.75z" fill="url(#g)"/></g></svg>